<svg width="947" height="281" viewBox="0 0 947 281" fill="none" xmlns="http://www.w3.org/2000/svg">
<path d="M406.559 105.316C403.743 105.309 400.988 106.127 398.642 107.669C396.296 109.21 394.465 111.404 393.38 113.974C392.295 116.544 392.005 119.375 392.547 122.108C393.089 124.841 394.439 127.354 396.425 129.328C398.411 131.303 400.945 132.651 403.705 133.201C406.466 133.752 409.33 133.481 411.935 132.422C414.54 131.363 416.769 129.564 418.34 127.253C419.911 124.941 420.753 122.221 420.761 119.436C420.766 117.587 420.403 115.755 419.692 114.044C418.981 112.334 417.936 110.779 416.617 109.468C415.299 108.157 413.732 107.115 412.006 106.403C410.28 105.691 408.429 105.321 406.559 105.316Z" fill="#460087"/>
<path d="M60.143 158.009L26.8238 113.496C25.497 111.72 23.7688 110.277 21.7774 109.28C19.7859 108.283 17.5863 107.76 15.3543 107.754H1.25776L0.950195 219.937L28.4385 220.013L28.6051 157.692L51.1852 187.845C52.2549 189.141 53.6026 190.186 55.1309 190.903C56.6591 191.621 58.3296 191.993 60.0212 191.993C61.7129 191.993 63.3833 191.621 64.9115 190.903C66.4398 190.186 67.7876 189.141 68.8572 187.845L91.5014 157.831L91.322 220.153L118.58 220.229L118.887 108.033H105.252C102.957 108.026 100.693 108.549 98.6393 109.562C96.5856 110.574 94.7996 112.047 93.4237 113.863L60.143 158.009Z" fill="#460087"/>
<path d="M365.214 185.869C365.214 178.581 365.419 108.744 365.419 108.744L338.687 108.668C338.687 108.668 338.469 185.742 338.443 193.664C338.443 214.4 351.784 220.826 361.395 224.197C363.599 222.081 380.092 208.024 380.092 208.024C370.955 204.463 365.15 198.747 365.214 185.869Z" fill="#460087"/>
<path d="M484.885 141.191C467.994 141.191 462.228 146.73 458.281 150.571C457.819 149.455 457.371 148.416 456.999 147.491C456.43 146.167 455.481 145.038 454.269 144.242C453.057 143.447 451.636 143.021 450.181 143.017H438.084L437.866 221.168L464.419 221.232L464.534 178.29C464.534 170.457 469.366 162.269 479.733 162.295C490.1 162.32 495.47 169.988 495.444 179.481L495.329 221.308L521.177 221.371L521.292 176.148C521.331 155.133 505.235 141.191 484.885 141.191Z" fill="#460087"/>
<path d="M217.243 200.247C217.243 184.695 217.243 166.026 217.371 150.449C211.091 147.495 197.687 140.372 179.912 140.309C153.577 140.245 132.561 154.365 132.497 182.135C132.497 205.583 150.322 221.959 170.673 222.022C180.694 222.022 188.396 220.07 196.059 212.694C197.533 217.561 202.249 221.946 210.899 222.339C211.988 221.236 225.419 210.818 225.419 210.818C222.561 209.779 217.23 206.445 217.243 200.247ZM192.138 187.167C192.138 196.534 182.873 201.109 175.645 201.325C168.622 201.489 157.447 199.449 157.499 182.186C157.499 165.797 169.032 160.297 179.746 160.322C183.295 160.322 190.28 161.856 192.266 163.82C192.266 168.827 192.138 183.567 192.138 187.167Z" fill="#460087"/>
<path d="M285.162 140.523C269.054 140.523 262.839 146.544 258.251 149.713C257.802 148.597 257.341 147.52 256.905 146.544C256.322 145.257 255.375 144.164 254.18 143.395C252.984 142.627 251.59 142.215 250.164 142.209H237.157L236.85 253.923L263.595 253.999L263.684 217.965C263.684 217.965 269.464 222.3 283.266 222.338C305.474 222.338 324.863 207.661 324.94 181.45C325.017 156.443 306.077 140.587 285.162 140.523ZM277.807 202.325C272.078 202.325 266.017 200.031 264.094 198.054C264.094 192.984 264.094 180.385 264.094 176.76C264.094 164.985 274.731 161.551 281.766 161.361C288.802 161.17 299.515 164.985 299.464 182.388C299.451 198.89 288.251 202.35 277.807 202.325Z" fill="#460087"/>
<path d="M419.701 142.952L393.118 142.879L392.898 221.03L419.48 221.104L419.701 142.952Z" fill="#460087"/>
<path d="M591.056 221.524L619.98 221.6L596.234 183.867C597.618 182.777 598.963 181.7 600.257 180.471C605.438 175.731 609.6 170.008 612.495 163.643C615.391 157.278 616.96 150.401 617.109 143.423H591.812C591.456 150.912 588.317 158.007 582.996 163.347C577.743 168.273 570.842 171.116 563.606 171.332V169.723L563.696 135.678L563.773 109.176V109.391L540.001 109.328H537.195L536.861 221.372H539.668L563.44 221.435V221.106V199.559V195.363C566.883 195.332 570.315 194.98 573.692 194.311L591.056 221.524Z" fill="#460087"/>
<path d="M784.588 240.421C729.176 192.257 726.011 152.028 725.831 146.628C725.831 146.223 725.831 144.575 725.831 144.575L679.915 144.461V146.299C679.915 173.765 690.487 216.009 755.203 274.706C757.446 276.84 760.106 278.497 763.021 279.575C765.936 280.653 769.043 281.129 772.151 280.972C775.259 280.816 778.302 280.032 781.091 278.667C783.881 277.303 786.358 275.387 788.37 273.039C790.381 270.691 791.885 267.96 792.788 265.015C793.691 262.069 793.975 258.972 793.62 255.914C793.266 252.856 792.282 249.903 790.728 247.236C789.175 244.569 787.085 242.245 784.588 240.408V240.421Z" fill="#FF6700"/>
<path d="M679.915 144.094V144.474C680.039 150.405 682.504 156.052 686.782 160.208C691.061 164.365 696.813 166.701 702.811 166.718C708.808 166.734 714.574 164.43 718.876 160.297C723.178 156.164 725.674 150.531 725.831 144.601V144.272C725.946 132.443 730.77 121.135 739.257 112.8C747.744 104.466 759.211 99.775 771.171 99.7455L771.299 54.3323C747.155 54.2783 723.974 63.6983 706.842 80.5257C689.711 97.3532 680.027 120.214 679.915 144.094Z" fill="#460087"/>
<path d="M773.16 54.3573C772.545 54.3573 771.879 54.2813 771.302 54.2813C768.283 54.2763 765.293 54.8595 762.501 55.9976C759.71 57.1357 757.173 58.8064 755.034 60.9143C752.896 63.0222 751.198 65.526 750.038 68.2829C748.878 71.0397 748.279 73.9955 748.273 76.9816C748.268 79.9676 748.858 82.9254 750.009 85.686C751.159 88.4467 752.849 90.9561 754.98 93.0711C757.111 95.1861 759.643 96.8652 762.43 98.0125C765.218 99.1598 768.206 99.7529 771.225 99.7579H771.302C783.272 99.835 794.723 104.602 803.145 113.015C811.567 121.428 816.273 132.8 816.232 144.639C816.232 144.639 816.232 144.753 816.232 144.867L862.366 144.994V144.728C862.425 121.111 853.114 98.4138 836.433 81.5151C819.752 64.6165 797.033 54.8652 773.16 54.3573Z" fill="#FF6700"/>
<path d="M936.433 117.078L899.718 107.255C896.073 106.279 892.185 106.775 888.909 108.633C885.633 110.492 883.239 113.562 882.251 117.167C881.264 120.772 881.765 124.618 883.644 127.858C885.524 131.097 888.627 133.466 892.273 134.443L929.013 144.316C932.665 145.289 936.559 144.788 939.837 142.922C943.115 141.056 945.509 137.979 946.493 134.367C947.477 130.755 946.97 126.904 945.083 123.662C943.197 120.42 940.085 118.051 936.433 117.078Z" fill="#460087"/>
<path d="M935.912 51.656C934.031 48.4172 930.927 46.0493 927.282 45.0725C923.636 44.0957 919.748 44.59 916.471 46.4467L883.485 65.1165C881.863 66.0369 880.44 67.2644 879.297 68.7288C878.155 70.1932 877.315 71.8659 876.826 73.6513C876.337 75.4367 876.208 77.3 876.447 79.1346C876.686 80.9693 877.288 82.7394 878.218 84.3439C879.149 85.9485 880.39 87.356 881.871 88.4861C883.351 89.6163 885.043 90.447 886.848 90.9307C888.653 91.4144 890.537 91.5417 892.392 91.3054C894.247 91.069 896.037 90.4736 897.659 89.5532L930.645 70.8327C933.906 68.9725 936.29 65.9116 937.277 62.3186C938.264 58.7256 937.773 54.8924 935.912 51.656Z" fill="#460087"/>
<path d="M869.306 0.487414C865.66 -0.486114 861.773 0.0108728 858.498 1.86922C855.222 3.72756 852.826 6.79535 851.836 10.399L841.865 46.7372C840.986 50.3081 841.553 54.077 843.445 57.2405C845.336 60.404 848.402 62.7119 851.989 63.6722C855.576 64.6326 859.401 64.1695 862.648 62.3816C865.894 60.5937 868.307 57.6224 869.37 54.1011L879.303 17.7883C879.799 16.0031 879.933 14.1389 879.698 12.3024C879.463 10.4659 878.865 8.69319 877.936 7.08598C877.007 5.47876 875.767 4.06859 874.286 2.93628C872.805 1.80397 871.113 0.971783 869.306 0.487414Z" fill="#460087"/>
<path d="M923.505 58.5492C923.483 58.5725 923.47 58.6039 923.47 58.6365C923.47 58.6692 923.483 58.7006 923.505 58.7239C923.523 58.7416 923.545 58.7537 923.569 58.7587C923.594 58.7638 923.619 58.7614 923.642 58.7521C923.665 58.7427 923.685 58.7267 923.698 58.7061C923.712 58.6856 923.72 58.6613 923.72 58.6365C923.72 58.6117 923.712 58.5875 923.698 58.5669C923.685 58.5463 923.665 58.5303 923.642 58.521C923.619 58.5116 923.594 58.5093 923.569 58.5143C923.545 58.5193 923.523 58.5315 923.505 58.5492Z" fill="#460087"/>
<path d="M862.368 144.645C862.019 138.85 859.449 133.405 855.183 129.418C850.917 125.432 845.275 123.204 839.406 123.188C833.537 123.171 827.882 125.369 823.594 129.332C819.305 133.295 816.705 138.725 816.323 144.518V144.822C816.323 144.822 816.323 146.356 816.323 146.52C816.323 150.158 814.183 191.211 757.041 240.313C754.197 242.338 751.881 245.004 750.283 248.089C748.685 251.174 747.852 254.591 747.853 258.057C747.823 261.028 748.394 263.974 749.531 266.724C750.668 269.474 752.349 271.971 754.475 274.07C756.601 276.169 759.129 277.827 761.911 278.947C764.693 280.067 767.673 280.627 770.676 280.593C776.487 280.624 782.098 278.498 786.4 274.636C851.757 216.028 862.24 172.389 862.317 144.949C862.368 144.835 862.368 144.746 862.368 144.645Z" fill="#460087"/>
</svg>
