<?xml version="1.0" encoding="UTF-8"?>
<svg xmlns="http://www.w3.org/2000/svg" width="318" height="51" viewBox="0 0 318 51" fill="none">
  <path d="M67.4846 17.6543C67.0161 17.653 66.5577 17.7902 66.1675 18.0485C65.7772 18.3068 65.4726 18.6746 65.2922 19.1053C65.1117 19.5361 65.0635 20.0105 65.1537 20.4686C65.2438 20.9266 65.4683 21.3477 65.7987 21.6787C66.1291 22.0096 66.5505 22.2356 67.0098 22.3279C67.4691 22.4202 67.9455 22.3747 68.3788 22.1972C68.8121 22.0198 69.1829 21.7183 69.4443 21.3309C69.7056 20.9435 69.8458 20.4875 69.847 20.0208C69.8479 19.7108 69.7874 19.4038 69.6692 19.1171C69.5509 18.8305 69.3771 18.5698 69.1577 18.3501C68.9384 18.1303 68.6777 17.9558 68.3906 17.8364C68.1035 17.717 67.7957 17.6551 67.4846 17.6543Z" fill="#460087"></path>
  <path d="M9.84847 26.4872L4.30484 19.0268C4.08409 18.7292 3.79656 18.4873 3.46522 18.3202C3.13388 18.1531 2.76792 18.0655 2.39655 18.0645H0.0511731L0 36.8665L4.57349 36.8793L4.60121 26.4341L8.35809 31.4878C8.53605 31.7051 8.76029 31.8801 9.01456 32.0004C9.26883 32.1206 9.54676 32.183 9.82821 32.183C10.1097 32.183 10.3876 32.1206 10.6419 32.0004C10.8961 31.8801 11.1204 31.7051 11.2983 31.4878L15.0659 26.4575L15.036 36.9026L19.5711 36.9154L19.6223 18.1112H17.3537C16.9719 18.11 16.5952 18.1978 16.2535 18.3674C15.9118 18.5371 15.6146 18.784 15.3857 19.0884L9.84847 26.4872Z" fill="#460087"></path>
  <path d="M60.6064 31.149C60.6064 29.9275 60.6405 18.2227 60.6405 18.2227L56.1929 18.21C56.1929 18.21 56.1566 31.1277 56.1523 32.4554C56.1523 35.9308 58.3719 37.0078 59.9711 37.5728C60.3378 37.2181 63.0819 34.8622 63.0819 34.8622C61.5616 34.2653 60.5958 33.3073 60.6064 31.149Z" fill="#460087"></path>
  <path d="M80.5143 23.6611C77.7041 23.6611 76.7446 24.5894 76.0879 25.2331C76.0112 25.0462 75.9366 24.872 75.8747 24.7169C75.78 24.4951 75.6221 24.3058 75.4205 24.1725C75.2188 24.0392 74.9824 23.9678 74.7404 23.967H72.7277L72.6914 37.0654L77.1093 37.076L77.1284 29.8789C77.1284 28.5661 77.9323 27.1938 79.6572 27.1981C81.3821 27.2023 82.2755 28.4875 82.2712 30.0786L82.252 37.0887L86.5526 37.0994L86.5718 29.5199C86.5782 25.9978 83.9002 23.6611 80.5143 23.6611Z" fill="#460087"></path>
  <path d="M35.9867 33.5634C35.9867 30.9569 35.9867 27.8278 36.008 25.217C34.9633 24.7221 32.733 23.5282 29.7757 23.5176C25.3941 23.507 21.8974 25.8734 21.8867 30.5278C21.8867 34.4577 24.8526 37.2023 28.2384 37.2129C29.9058 37.2129 31.1872 36.8857 32.4623 35.6494C32.7075 36.4651 33.4921 37.2001 34.9313 37.266C35.1125 37.0812 37.347 35.335 37.347 35.335C36.8716 35.1608 35.9846 34.6021 35.9867 33.5634ZM31.8098 31.3711C31.8098 32.9409 30.2683 33.7078 29.0657 33.7439C27.8973 33.7715 26.038 33.4295 26.0466 30.5363C26.0466 27.7895 27.9655 26.8676 29.748 26.8719C30.3386 26.8719 31.5006 27.1289 31.8311 27.4582C31.8311 28.2973 31.8098 30.7678 31.8098 31.3711Z" fill="#460087"></path>
  <path d="M47.2883 23.5527C44.6081 23.5527 43.574 24.5618 42.8107 25.0928C42.7361 24.9059 42.6593 24.7253 42.5868 24.5618C42.4897 24.3461 42.3323 24.1629 42.1334 24.0341C41.9345 23.9052 41.7026 23.8362 41.4653 23.8353H39.3012L39.25 42.5587L43.6998 42.5715L43.7147 36.5321C43.7147 36.5321 44.6764 37.2586 46.9727 37.265C50.6677 37.265 53.8937 34.8051 53.9065 30.4121C53.9193 26.2208 50.7679 23.5634 47.2883 23.5527ZM46.0644 33.9108C45.1113 33.9108 44.1028 33.5263 43.783 33.1949C43.783 32.3452 43.783 30.2336 43.783 29.6261C43.783 27.6526 45.5527 27.0769 46.7232 27.0451C47.8938 27.0132 49.6763 27.6526 49.6678 30.5693C49.6656 33.3351 47.8021 33.915 46.0644 33.9108Z" fill="#460087"></path>
  <path d="M69.6643 23.9596L65.2422 23.9473L65.2055 37.0456L69.6276 37.0579L69.6643 23.9596Z" fill="#460087"></path>
  <path d="M98.1771 37.1285L102.989 37.1412L99.0385 30.8172C99.2688 30.6346 99.4926 30.454 99.708 30.2479C100.57 29.4536 101.262 28.4944 101.744 27.4276C102.226 26.3608 102.487 25.2082 102.512 24.0386H98.3029C98.2437 25.2938 97.7213 26.483 96.8359 27.378C95.962 28.2036 94.8138 28.68 93.61 28.7163V28.4465L93.6249 22.7407L93.6377 18.2988V18.3349L89.6825 18.3243H89.2156L89.1602 37.103H89.6271L93.5823 37.1136V37.0584V33.4471V32.744C94.1551 32.7387 94.7262 32.6796 95.288 32.5677L98.1771 37.1285Z" fill="#460087"></path>
  <path d="M130.384 40.2949C121.165 32.2226 120.638 25.4801 120.608 24.5752C120.608 24.5072 120.608 24.231 120.608 24.231L112.969 24.2119V24.5199C112.969 29.1233 114.728 36.2035 125.495 46.0411C125.868 46.3988 126.311 46.6766 126.796 46.8572C127.281 47.0379 127.798 47.1176 128.315 47.0914C128.832 47.0653 129.338 46.9338 129.802 46.7051C130.267 46.4764 130.679 46.1554 131.013 45.7618C131.348 45.3683 131.598 44.9105 131.749 44.4169C131.899 43.9232 131.946 43.4041 131.887 42.8916C131.828 42.3791 131.664 41.8841 131.406 41.4371C131.147 40.9901 130.8 40.6007 130.384 40.2928V40.2949Z" fill="#FF6700"></path>
  <path d="M112.969 24.1497V24.2134C112.989 25.2074 113.399 26.1538 114.111 26.8505C114.823 27.5471 115.78 27.9387 116.778 27.9415C117.776 27.9442 118.735 27.558 119.451 26.8653C120.167 26.1726 120.582 25.2285 120.608 24.2347V24.1794C120.627 22.1969 121.43 20.3018 122.842 18.9049C124.254 17.5079 126.162 16.7218 128.152 16.7168L128.173 9.10551C124.156 9.09646 120.299 10.6753 117.449 13.4956C114.599 16.3159 112.987 20.1474 112.969 24.1497Z" fill="#460087"></path>
  <path d="M128.481 9.10748C128.378 9.10748 128.267 9.09473 128.171 9.09473C127.669 9.09389 127.171 9.19164 126.707 9.38239C126.243 9.57313 125.821 9.85315 125.465 10.2064C125.109 10.5597 124.826 10.9794 124.633 11.4414C124.44 11.9035 124.341 12.3989 124.34 12.8993C124.339 13.3998 124.437 13.8955 124.629 14.3582C124.82 14.8209 125.101 15.2415 125.456 15.596C125.81 15.9504 126.231 16.2319 126.695 16.4241C127.159 16.6164 127.656 16.7158 128.159 16.7167H128.171C130.163 16.7296 132.068 17.5286 133.469 18.9386C134.871 20.3486 135.654 22.2546 135.647 24.2388C135.647 24.2388 135.647 24.2579 135.647 24.277L143.323 24.2983V24.2536C143.332 20.2955 141.783 16.4914 139.008 13.6592C136.232 10.8269 132.452 9.19259 128.481 9.10748Z" fill="#FF6700"></path>
  <path d="M155.644 19.6259L149.535 17.9796C148.929 17.8159 148.282 17.899 147.737 18.2105C147.192 18.522 146.794 19.0365 146.629 19.6408C146.465 20.245 146.548 20.8895 146.861 21.4325C147.174 21.9755 147.69 22.3725 148.297 22.5362L154.41 24.191C155.017 24.3541 155.665 24.27 156.21 23.9573C156.756 23.6446 157.154 23.1288 157.318 22.5234C157.482 21.918 157.397 21.2727 157.083 20.7293C156.769 20.1859 156.252 19.789 155.644 19.6259Z" fill="#460087"></path>
  <path d="M155.566 8.66022C155.253 8.11738 154.736 7.72052 154.13 7.55681C153.523 7.39311 152.876 7.47595 152.331 7.78713L146.843 10.9162C146.573 11.0705 146.336 11.2762 146.146 11.5216C145.956 11.7671 145.816 12.0474 145.735 12.3467C145.653 12.6459 145.632 12.9582 145.672 13.2657C145.712 13.5732 145.812 13.8698 145.967 14.1388C146.121 14.4077 146.328 14.6436 146.574 14.833C146.821 15.0224 147.102 15.1616 147.402 15.2427C147.703 15.3238 148.016 15.3451 148.325 15.3055C148.633 15.2659 148.931 15.1661 149.201 15.0118L154.689 11.8743C155.232 11.5625 155.628 11.0495 155.793 10.4473C155.957 9.8451 155.875 9.20264 155.566 8.66022Z" fill="#460087"></path>
  <path d="M144.472 0.0816912C143.865 -0.0814733 143.219 0.0018223 142.674 0.313283C142.129 0.624744 141.731 1.13891 141.566 1.74288L139.907 7.83321C139.761 8.4317 139.855 9.06337 140.17 9.59358C140.484 10.1238 140.994 10.5106 141.591 10.6716C142.188 10.8325 142.824 10.7549 143.364 10.4552C143.904 10.1556 144.306 9.65759 144.483 9.06742L146.135 2.98134C146.217 2.68215 146.24 2.3697 146.201 2.0619C146.162 1.7541 146.062 1.45699 145.908 1.18762C145.753 0.918247 145.547 0.681901 145.3 0.492124C145.054 0.302347 144.773 0.162872 144.472 0.0816912Z" fill="#460087"></path>
  <path d="M153.495 9.81536C153.491 9.81958 153.488 9.82526 153.488 9.83116C153.488 9.83707 153.491 9.84274 153.495 9.84696C153.498 9.85016 153.502 9.85235 153.506 9.85326C153.511 9.85417 153.515 9.85375 153.519 9.85205C153.524 9.85036 153.527 9.84747 153.53 9.84375C153.532 9.84003 153.533 9.83565 153.533 9.83116C153.533 9.82668 153.532 9.82229 153.53 9.81857C153.527 9.81485 153.524 9.81196 153.519 9.81027C153.515 9.80857 153.511 9.80815 153.506 9.80906C153.502 9.80997 153.498 9.81216 153.495 9.81536Z" fill="#460087"></path>
  <path d="M143.319 24.2437C143.261 23.2725 142.833 22.3599 142.123 21.6918C141.414 21.0236 140.475 20.6502 139.498 20.6475C138.522 20.6448 137.581 21.013 136.868 21.6772C136.154 22.3414 135.721 23.2516 135.658 24.2225V24.2734C135.658 24.2734 135.658 24.5305 135.658 24.5581C135.658 25.1678 135.302 32.0483 125.795 40.2778C125.321 40.6173 124.936 41.064 124.67 41.5811C124.404 42.0982 124.266 42.6708 124.266 43.2518C124.261 43.7497 124.356 44.2435 124.545 44.7044C124.734 45.1652 125.014 45.5838 125.368 45.9356C125.721 46.2874 126.142 46.5653 126.605 46.753C127.068 46.9407 127.563 47.0345 128.063 47.0288C129.03 47.034 129.963 46.6777 130.679 46.0304C141.553 36.2077 143.298 28.8938 143.31 24.2947C143.319 24.2756 143.319 24.2607 143.319 24.2437Z" fill="#460087"></path>
  <rect x="175.523" y="7.19727" width="0.953926" height="42.9267" fill="#5A0DA2"></rect>
  <path d="M191.245 36.4941V20.7186H197.894C199.576 20.7186 201.056 21.0491 202.333 21.7102C203.625 22.3713 204.624 23.2953 205.331 24.4822C206.052 25.6691 206.412 27.0438 206.412 28.6064C206.412 30.1689 206.052 31.5436 205.331 32.7305C204.624 33.9175 203.625 34.8415 202.333 35.5025C201.056 36.1636 199.576 36.4941 197.894 36.4941H191.245ZM193.499 34.5335H197.758C199.065 34.5335 200.192 34.2856 201.139 33.7898C202.1 33.294 202.844 32.6028 203.37 31.7164C203.896 30.8149 204.159 29.7783 204.159 28.6064C204.159 27.4194 203.896 26.3828 203.37 25.4963C202.844 24.6099 202.1 23.9188 201.139 23.423C200.192 22.9272 199.065 22.6793 197.758 22.6793H193.499V34.5335ZM214.867 36.6294C213.59 36.6294 212.463 36.3664 211.487 35.8406C210.525 35.3147 209.774 34.5936 209.233 33.6771C208.707 32.7606 208.444 31.7089 208.444 30.522C208.444 29.335 208.7 28.2833 209.211 27.3669C209.737 26.4504 210.45 25.7367 211.352 25.2259C212.268 24.7 213.297 24.4371 214.439 24.4371C215.596 24.4371 216.618 24.6925 217.504 25.2033C218.391 25.7142 219.082 26.4353 219.578 27.3669C220.088 28.2833 220.344 29.3576 220.344 30.5896C220.344 30.6797 220.336 30.7849 220.321 30.9051C220.321 31.0253 220.314 31.138 220.299 31.2431H210.135V29.6881H219.172L218.293 30.229C218.308 29.4627 218.15 28.7791 217.82 28.1782C217.489 27.5772 217.031 27.1114 216.445 26.7809C215.874 26.4353 215.205 26.2626 214.439 26.2626C213.688 26.2626 213.019 26.4353 212.433 26.7809C211.847 27.1114 211.389 27.5847 211.059 28.2007C210.728 28.8017 210.563 29.4928 210.563 30.2741V30.6346C210.563 31.4309 210.743 32.1446 211.104 32.7756C211.479 33.3916 211.998 33.8724 212.659 34.218C213.32 34.5635 214.079 34.7363 214.935 34.7363C215.641 34.7363 216.28 34.6161 216.851 34.3757C217.437 34.1353 217.947 33.7747 218.383 33.294L219.578 34.6912C219.037 35.3222 218.361 35.803 217.549 36.1336C216.753 36.4641 215.859 36.6294 214.867 36.6294ZM226.26 36.4941L221.032 24.5498H223.286L227.928 35.3673H226.846L231.579 24.5498H233.698L228.469 36.4941H226.26ZM240.705 36.6294C239.428 36.6294 238.301 36.3664 237.325 35.8406C236.363 35.3147 235.612 34.5936 235.071 33.6771C234.545 32.7606 234.282 31.7089 234.282 30.522C234.282 29.335 234.538 28.2833 235.048 27.3669C235.574 26.4504 236.288 25.7367 237.189 25.2259C238.106 24.7 239.135 24.4371 240.277 24.4371C241.434 24.4371 242.455 24.6925 243.342 25.2033C244.228 25.7142 244.919 26.4353 245.415 27.3669C245.926 28.2833 246.182 29.3576 246.182 30.5896C246.182 30.6797 246.174 30.7849 246.159 30.9051C246.159 31.0253 246.151 31.138 246.136 31.2431H235.972V29.6881H245.01L244.131 30.229C244.146 29.4627 243.988 28.7791 243.657 28.1782C243.327 27.5772 242.869 27.1114 242.283 26.7809C241.712 26.4353 241.043 26.2626 240.277 26.2626C239.526 26.2626 238.857 26.4353 238.271 26.7809C237.685 27.1114 237.227 27.5847 236.896 28.2007C236.566 28.8017 236.401 29.4928 236.401 30.2741V30.6346C236.401 31.4309 236.581 32.1446 236.942 32.7756C237.317 33.3916 237.835 33.8724 238.497 34.218C239.158 34.5635 239.916 34.7363 240.773 34.7363C241.479 34.7363 242.117 34.6161 242.688 34.3757C243.274 34.1353 243.785 33.7747 244.221 33.294L245.415 34.6912C244.874 35.3222 244.198 35.803 243.387 36.1336C242.591 36.4641 241.697 36.6294 240.705 36.6294ZM249.186 36.4941V19.772H251.349V36.4941H249.186ZM260.596 36.6294C259.394 36.6294 258.327 36.3664 257.396 35.8406C256.464 35.3147 255.728 34.5936 255.187 33.6771C254.646 32.7456 254.376 31.6939 254.376 30.522C254.376 29.335 254.646 28.2833 255.187 27.3669C255.728 26.4504 256.464 25.7367 257.396 25.2259C258.327 24.7 259.394 24.4371 260.596 24.4371C261.783 24.4371 262.842 24.7 263.774 25.2259C264.72 25.7367 265.456 26.4504 265.982 27.3669C266.523 28.2683 266.793 29.32 266.793 30.522C266.793 31.7089 266.523 32.7606 265.982 33.6771C265.456 34.5936 264.72 35.3147 263.774 35.8406C262.842 36.3664 261.783 36.6294 260.596 36.6294ZM260.596 34.7363C261.362 34.7363 262.046 34.5635 262.647 34.218C263.263 33.8724 263.744 33.3841 264.089 32.7531C264.435 32.107 264.607 31.3633 264.607 30.522C264.607 29.6656 264.435 28.9294 264.089 28.3134C263.744 27.6824 263.263 27.1941 262.647 26.8485C262.046 26.503 261.362 26.3302 260.596 26.3302C259.83 26.3302 259.146 26.503 258.545 26.8485C257.944 27.1941 257.463 27.6824 257.103 28.3134C256.742 28.9294 256.562 29.6656 256.562 30.522C256.562 31.3633 256.742 32.107 257.103 32.7531C257.463 33.3841 257.944 33.8724 258.545 34.218C259.146 34.5635 259.83 34.7363 260.596 34.7363ZM276.118 36.6294C275.127 36.6294 274.218 36.404 273.391 35.9533C272.58 35.4875 271.926 34.8039 271.431 33.9024C270.95 33.001 270.71 31.8742 270.71 30.522C270.71 29.1698 270.942 28.0429 271.408 27.1415C271.889 26.24 272.535 25.5639 273.346 25.1132C274.173 24.6625 275.097 24.4371 276.118 24.4371C277.29 24.4371 278.327 24.6925 279.228 25.2033C280.13 25.7142 280.843 26.4278 281.369 27.3443C281.895 28.2458 282.158 29.305 282.158 30.522C282.158 31.7389 281.895 32.8057 281.369 33.7221C280.843 34.6386 280.13 35.3523 279.228 35.8631C278.327 36.3739 277.29 36.6294 276.118 36.6294ZM269.786 40.8662V24.5498H271.859V27.7725L271.724 30.5445L271.949 33.3165V40.8662H269.786ZM275.938 34.7363C276.704 34.7363 277.388 34.5635 277.989 34.218C278.605 33.8724 279.086 33.3841 279.431 32.7531C279.792 32.107 279.972 31.3633 279.972 30.522C279.972 29.6656 279.792 28.9294 279.431 28.3134C279.086 27.6824 278.605 27.1941 277.989 26.8485C277.388 26.503 276.704 26.3302 275.938 26.3302C275.187 26.3302 274.503 26.503 273.887 26.8485C273.286 27.1941 272.805 27.6824 272.445 28.3134C272.099 28.9294 271.926 29.6656 271.926 30.522C271.926 31.3633 272.099 32.107 272.445 32.7531C272.805 33.3841 273.286 33.8724 273.887 34.218C274.503 34.5635 275.187 34.7363 275.938 34.7363ZM290.466 36.6294C289.189 36.6294 288.062 36.3664 287.085 35.8406C286.124 35.3147 285.373 34.5936 284.832 33.6771C284.306 32.7606 284.043 31.7089 284.043 30.522C284.043 29.335 284.298 28.2833 284.809 27.3669C285.335 26.4504 286.049 25.7367 286.95 25.2259C287.867 24.7 288.896 24.4371 290.038 24.4371C291.195 24.4371 292.216 24.6925 293.103 25.2033C293.989 25.7142 294.68 26.4353 295.176 27.3669C295.687 28.2833 295.942 29.3576 295.942 30.5896C295.942 30.6797 295.935 30.7849 295.92 30.9051C295.92 31.0253 295.912 31.138 295.897 31.2431H285.733V29.6881H294.77L293.891 30.229C293.907 29.4627 293.749 28.7791 293.418 28.1782C293.088 27.5772 292.629 27.1114 292.043 26.7809C291.473 26.4353 290.804 26.2626 290.038 26.2626C289.287 26.2626 288.618 26.4353 288.032 26.7809C287.446 27.1114 286.988 27.5847 286.657 28.2007C286.327 28.8017 286.161 29.4928 286.161 30.2741V30.6346C286.161 31.4309 286.342 32.1446 286.702 32.7756C287.078 33.3916 287.596 33.8724 288.257 34.218C288.918 34.5635 289.677 34.7363 290.534 34.7363C291.24 34.7363 291.878 34.6161 292.449 34.3757C293.035 34.1353 293.546 33.7747 293.982 33.294L295.176 34.6912C294.635 35.3222 293.959 35.803 293.148 36.1336C292.351 36.4641 291.458 36.6294 290.466 36.6294ZM298.947 36.4941V24.5498H301.02V27.795L300.817 26.9837C301.148 26.1574 301.703 25.5264 302.485 25.0907C303.266 24.655 304.228 24.4371 305.369 24.4371V26.533C305.279 26.518 305.189 26.5105 305.099 26.5105C305.024 26.5105 304.949 26.5105 304.874 26.5105C303.717 26.5105 302.8 26.856 302.124 27.5471C301.448 28.2383 301.11 29.2374 301.11 30.5445V36.4941H298.947ZM311.594 36.6294C310.602 36.6294 309.655 36.4941 308.754 36.2237C307.868 35.9533 307.169 35.6227 306.658 35.2321L307.56 33.5193C308.07 33.8649 308.701 34.1579 309.453 34.3982C310.204 34.6386 310.97 34.7588 311.751 34.7588C312.758 34.7588 313.479 34.6161 313.915 34.3306C314.366 34.0452 314.591 33.647 314.591 33.1362C314.591 32.7606 314.456 32.4676 314.185 32.2573C313.915 32.0469 313.554 31.8892 313.104 31.784C312.668 31.6788 312.18 31.5887 311.639 31.5136C311.098 31.4234 310.557 31.3183 310.016 31.1981C309.475 31.0628 308.979 30.8825 308.529 30.6572C308.078 30.4168 307.717 30.0938 307.447 29.6881C307.176 29.2674 307.041 28.7115 307.041 28.0204C307.041 27.2992 307.244 26.6682 307.65 26.1273C308.055 25.5865 308.626 25.1733 309.362 24.8878C310.114 24.5873 311 24.4371 312.022 24.4371C312.803 24.4371 313.592 24.5348 314.388 24.7301C315.199 24.9104 315.86 25.1733 316.371 25.5189L315.447 27.2316C314.906 26.871 314.343 26.6231 313.757 26.4879C313.171 26.3527 312.585 26.2851 311.999 26.2851C311.053 26.2851 310.347 26.4429 309.881 26.7584C309.415 27.0589 309.182 27.4495 309.182 27.9303C309.182 28.3359 309.317 28.6514 309.588 28.8768C309.873 29.0871 310.234 29.2524 310.67 29.3726C311.12 29.4928 311.616 29.598 312.157 29.6881C312.698 29.7632 313.239 29.8684 313.78 30.0036C314.32 30.1238 314.809 30.2966 315.244 30.522C315.695 30.7473 316.056 31.0628 316.326 31.4685C316.612 31.8742 316.754 32.415 316.754 33.0911C316.754 33.8123 316.544 34.4358 316.123 34.9617C315.703 35.4875 315.109 35.9007 314.343 36.2012C313.577 36.4866 312.66 36.6294 311.594 36.6294Z" fill="#5A0DA2"></path>
</svg>
